<svg xmlns="http://www.w3.org/2000/svg" width="27.969" height="24.861" viewBox="0 0 27.969 24.861">
  <g id="Group_2895" data-name="Group 2895" transform="translate(-95.908 -140.816)">
    <path id="Path_8477" data-name="Path 8477" d="M452.233,184.446h-3.717l-1.019,1.875,1.019-1.875Z" transform="translate(-339.421 -42.12)" fill="none"/>
    <path id="Path_8478" data-name="Path 8478" d="M339.125,598.187l1.964-3.566-1.964,3.566Z" transform="translate(-234.8 -438.099)" fill="none"/>
    <path id="Path_8479" data-name="Path 8479" d="M99.7,184.446h0l4.629,8.774h0Z" transform="translate(0 -42.12)" fill="none"/>
    <path id="Path_8480" data-name="Path 8480" d="M110.165,199.8a3,3,0,0,1-.835-1.921,2.9,2.9,0,0,1,.845-2.115,6.931,6.931,0,0,1,1.348-1.093,14,14,0,0,1,1.289-.752v-9.475H109.1l-4.77,8.774L99.7,184.446H95.908v17.762h4.419V195l4,7.2,3.928-7.133v7.133h4.559v-.7a10.5,10.5,0,0,1-1.428-.738A5.745,5.745,0,0,1,110.165,199.8Z" transform="translate(0 -42.12)" fill="#fff"/>
    <path id="Path_8481" data-name="Path 8481" d="M388.9,715.727h0Z" transform="translate(-282.849 -555.014)" fill="none"/>
    <path id="Path_8482" data-name="Path 8482" d="M370.4,825.752q-.088-.072-.166-.145Q370.314,825.68,370.4,825.752Z" transform="translate(-264.835 -661.092)" fill="none"/>
    <path id="Path_8483" data-name="Path 8483" d="M99.181,779.828a1.282,1.282,0,0,1-.108-.2A1.282,1.282,0,0,0,99.181,779.828Z" transform="translate(-3.056 -616.701)" fill="none"/>
    <path id="Path_8484" data-name="Path 8484" d="M676.866,706.544l.085.077.088-.037Z" transform="translate(-560.853 -546.15)" fill="none"/>
    <path id="Path_8485" data-name="Path 8485" d="M567.574,848.211l.2-.037.271-.051-.271.051Z" transform="translate(-455.343 -682.829)" fill="none"/>
    <path id="Path_8486" data-name="Path 8486" d="M96.238,762.321h0c0,.01,0,.021,0,.031C96.237,762.342,96.237,762.331,96.238,762.321Z" transform="translate(-0.317 -599.996)" fill="none"/>
    <path id="Path_8487" data-name="Path 8487" d="M396.578,716.765c-.018-.008-.036-.014-.054-.02C396.542,716.751,396.56,716.757,396.578,716.765Z" transform="translate(-290.213 -555.997)" fill="none"/>
    <g id="Group_2894" data-name="Group 2894" transform="translate(113.287 140.816)">
      <path id="Path_8488" data-name="Path 8488" d="M696.146,515.038l.011,0,.009-.006a1.383,1.383,0,0,0,.451-.5,1.2,1.2,0,0,0-.038-1.119v0s-.277-.413-.157-.664a.419.419,0,0,1,.372-.2.653.653,0,0,0,.184.024.9.9,0,0,0,.714-.383l.039-.049-.062.007-.019,0-.08.009a11.352,11.352,0,0,0-2.223.53c-.255.086-.5.176-.735.266l-.017.007v.018c0,.054,0,.1.007.144v.007a1.527,1.527,0,0,1-.165,1.381h0a.83.83,0,0,0-.063.107l-.015.029.032.008c.253.063.522.125.8.185.187.04.383.077.572.114Zm.836-2.486h0Z" transform="translate(-691.026 -499.295)" fill="#0081c6"/>
      <path id="Path_8489" data-name="Path 8489" d="M608.431,141.018a.633.633,0,0,0-.525-.2,3.546,3.546,0,0,0-1.948.956,26.769,26.769,0,0,0-2.316,1.343,34.346,34.346,0,0,0-5.024,3.909l-.008.008v2.474l.046-.058a15.922,15.922,0,0,1,2.706-2.648,23.328,23.328,0,0,1,4.543-2.722,9.4,9.4,0,0,0-.611,1.3,19.3,19.3,0,0,0-1.066,4.222l-.005.036.036-.007a10.473,10.473,0,0,1,1.808-.212h.021l0-.021c.626-3.749,1.864-5.761,2.793-6.789a.769.769,0,0,0,.3-.593C609.175,141.684,608.922,141.349,608.431,141.018Zm-4.521,1.957q.248-.156.473-.292Q604.159,142.82,603.91,142.976Zm2.062-1.182-.014.007.014-.007.089-.07Zm1.919-.952h0Z" transform="translate(-598.591 -140.816)" fill="#0081c6"/>
      <path id="Path_8490" data-name="Path 8490" d="M600.819,683.258l0,0-.007,0c-.3-.07-.573-.141-.845-.215-.5-.135-1.151-.322-1.834-.581l-.035-.013v.527a.5.5,0,0,1-.014.115l0,.018.016.01c.4.245.685.437.7.449l.461.377.026.021.017.014.011.009.014,0c.516-.178,1.044-.38,1.572-.6l.037-.016-.03-.027Z" transform="translate(-598.075 -663.699)" fill="#0081c6"/>
      <path id="Path_8491" data-name="Path 8491" d="M735.173,789.217l-.034.018c-.373.195-.754.379-1.134.546-.341.151-.7.3-1.053.438l-.021.008.005.022c.053.228.271.974.85.974h.034a1.254,1.254,0,0,0,.408.069.844.844,0,0,0,.659-.279,2.287,2.287,0,0,0,.29-1.757Zm-1.386,1.98h0Zm.441.068h0Z" transform="translate(-728.264 -766.777)" fill="#0081c6"/>
    </g>
    <path id="Path_8492" data-name="Path 8492" d="M123.155,404.147c-.261-.225-1.714-1.181-6.186.345-.539.184-1.114.383-1.692.614a17.838,17.838,0,0,0-3.217,1.613c-.657.435-2.024,1.34-1.961,2.752a2.492,2.492,0,0,0,.7,1.593,5.259,5.259,0,0,0,1.111.879,13.528,13.528,0,0,0,3.645,1.468c.564.153,1.152.292,1.8.424.191.039.385.068.574.1l.209.032-.123.058c-.245.121-.5.242-.79.37a27.039,27.039,0,0,1-2.753,1.065,15.781,15.781,0,0,1-3.422.75c-1.791.16-3.08-.2-3.831-1.068-.012-.017-.041-.061-.06-.091a1.3,1.3,0,0,0-.541-.547.783.783,0,0,0-.392-.05H97.852a2.156,2.156,0,0,0-1.179.447,1.3,1.3,0,0,0-.5.927q0,.037,0,.075c0,.042,0,.084,0,.125v.032c0,.042,0,.084,0,.125q0,.038,0,.075a1.3,1.3,0,0,0,.5.927,2.114,2.114,0,0,0,1.084.437h7.4a2.984,2.984,0,0,0,1.183,1.119,6.6,6.6,0,0,0,3.193.669,17.178,17.178,0,0,0,3.151-.332c.719-.129,1.424-.308,2.019-.466a29.354,29.354,0,0,0,4.38-1.511,18.232,18.232,0,0,0,2.294-1.212c.111-.069.225-.137.336-.2a8.656,8.656,0,0,0,.761-.489l.069-.05a1.641,1.641,0,0,0,.852-1.467,2.1,2.1,0,0,0-.973-1.41,8.92,8.92,0,0,0-2.169-1.014l-.318-.115a10.986,10.986,0,0,0-1.752-.44c-.192-.037-.39-.075-.581-.116-.63-.134-1.177-.273-1.674-.425a7.275,7.275,0,0,1-1.452-.578,1.536,1.536,0,0,1-.421-.3,1.072,1.072,0,0,1,.273-.235,4.648,4.648,0,0,1,.6-.32l.083-.039.027-.016a13.674,13.674,0,0,1,2.665-1.191,11.841,11.841,0,0,1,2.32-.552,10.3,10.3,0,0,1,1.224-.068c.1,0,.2,0,.308,0a2.776,2.776,0,0,0,1.859-.428,1.194,1.194,0,0,0,.5-.933A1.783,1.783,0,0,0,123.155,404.147Z" transform="translate(-0.25 -253.733)" fill="#f6750e"/>
  </g>
</svg>
